<svg width="108" height="75" viewBox="0 0 108 75" fill="none" xmlns="http://www.w3.org/2000/svg">
<path d="M52.9922 37.4105C52.9922 43.7105 52.3089 49.1939 50.9422 53.8605C49.6089 58.4939 47.7422 62.3272 45.3422 65.3605C42.9755 68.3939 40.1589 70.6605 36.8922 72.1605C33.6589 73.6272 30.1589 74.3605 26.3922 74.3605C22.6255 74.3605 19.1255 73.6272 15.8922 72.1605C12.6922 70.6605 9.90885 68.3939 7.54219 65.3605C5.17552 62.3272 3.32552 58.4939 1.99219 53.8605C0.658854 49.1939 -0.00781246 43.7105 -0.00781246 37.4105C-0.00781246 31.0772 0.658854 25.5939 1.99219 20.9605C3.32552 16.3272 5.17552 12.4939 7.54219 9.46054C9.90885 6.42721 12.6922 4.17721 15.8922 2.71054C19.1255 1.21055 22.6255 0.460546 26.3922 0.460546C30.1589 0.460546 33.6589 1.21055 36.8922 2.71054C40.1589 4.17721 42.9755 6.42721 45.3422 9.46054C47.7422 12.4939 49.6089 16.3272 50.9422 20.9605C52.3089 25.5939 52.9922 31.0772 52.9922 37.4105ZM40.2422 37.4105C40.2422 32.1772 39.8589 27.8439 39.0922 24.4105C38.3255 20.9772 37.2922 18.2439 35.9922 16.2105C34.7255 14.1772 33.2589 12.7605 31.5922 11.9605C29.9255 11.1272 28.1922 10.7105 26.3922 10.7105C24.6255 10.7105 22.9089 11.1272 21.2422 11.9605C19.6089 12.7605 18.1589 14.1772 16.8922 16.2105C15.6255 18.2439 14.6089 20.9772 13.8422 24.4105C13.1089 27.8439 12.7422 32.1772 12.7422 37.4105C12.7422 42.6439 13.1089 46.9772 13.8422 50.4105C14.6089 53.8439 15.6255 56.5772 16.8922 58.6105C18.1589 60.6439 19.6089 62.0772 21.2422 62.9105C22.9089 63.7105 24.6255 64.1105 26.3922 64.1105C28.1922 64.1105 29.9255 63.7105 31.5922 62.9105C33.2589 62.0772 34.7255 60.6439 35.9922 58.6105C37.2922 56.5772 38.3255 53.8439 39.0922 50.4105C39.8589 46.9772 40.2422 42.6439 40.2422 37.4105ZM107.25 64.3105V73.5605H67.25V64.3105H81.9V22.1605C81.9 20.4939 81.95 18.7772 82.05 17.0105L71.65 25.7105C71.05 26.1772 70.45 26.4772 69.85 26.6105C69.2833 26.7105 68.7333 26.7105 68.2 26.6105C67.7 26.5105 67.25 26.3439 66.85 26.1105C66.45 25.8439 66.15 25.5605 65.95 25.2605L62.05 19.9105L84.1 1.16054H94.25V64.3105H107.25Z" fill="#101010" fill-opacity="0.08"/>
</svg>
