<svg width="109" height="75" viewBox="0 0 109 75" fill="none" xmlns="http://www.w3.org/2000/svg">
<path d="M52.9922 37.4105C52.9922 43.7105 52.3089 49.1939 50.9422 53.8605C49.6089 58.4939 47.7422 62.3272 45.3422 65.3605C42.9755 68.3939 40.1589 70.6605 36.8922 72.1605C33.6589 73.6272 30.1589 74.3605 26.3922 74.3605C22.6255 74.3605 19.1255 73.6272 15.8922 72.1605C12.6922 70.6605 9.90885 68.3939 7.54219 65.3605C5.17552 62.3272 3.32552 58.4939 1.99219 53.8605C0.658854 49.1939 -0.00781246 43.7105 -0.00781246 37.4105C-0.00781246 31.0772 0.658854 25.5939 1.99219 20.9605C3.32552 16.3272 5.17552 12.4939 7.54219 9.46054C9.90885 6.42721 12.6922 4.17721 15.8922 2.71054C19.1255 1.21055 22.6255 0.460546 26.3922 0.460546C30.1589 0.460546 33.6589 1.21055 36.8922 2.71054C40.1589 4.17721 42.9755 6.42721 45.3422 9.46054C47.7422 12.4939 49.6089 16.3272 50.9422 20.9605C52.3089 25.5939 52.9922 31.0772 52.9922 37.4105ZM40.2422 37.4105C40.2422 32.1772 39.8589 27.8439 39.0922 24.4105C38.3255 20.9772 37.2922 18.2439 35.9922 16.2105C34.7255 14.1772 33.2589 12.7605 31.5922 11.9605C29.9255 11.1272 28.1922 10.7105 26.3922 10.7105C24.6255 10.7105 22.9089 11.1272 21.2422 11.9605C19.6089 12.7605 18.1589 14.1772 16.8922 16.2105C15.6255 18.2439 14.6089 20.9772 13.8422 24.4105C13.1089 27.8439 12.7422 32.1772 12.7422 37.4105C12.7422 42.6439 13.1089 46.9772 13.8422 50.4105C14.6089 53.8439 15.6255 56.5772 16.8922 58.6105C18.1589 60.6439 19.6089 62.0772 21.2422 62.9105C22.9089 63.7105 24.6255 64.1105 26.3922 64.1105C28.1922 64.1105 29.9255 63.7105 31.5922 62.9105C33.2589 62.0772 34.7255 60.6439 35.9922 58.6105C37.2922 56.5772 38.3255 53.8439 39.0922 50.4105C39.8589 46.9772 40.2422 42.6439 40.2422 37.4105ZM104.55 62.0605C105.883 62.0605 106.933 62.4439 107.7 63.2105C108.5 63.9439 108.9 64.9272 108.9 66.1605V73.5605H59.3V69.4605C59.3 68.6272 59.4667 67.7605 59.8 66.8605C60.1667 65.9272 60.7333 65.0939 61.5 64.3605L83.45 42.3605C85.2833 40.4939 86.9167 38.7105 88.35 37.0105C89.8167 35.3105 91.0333 33.6272 92 31.9605C92.9667 30.2939 93.7 28.6105 94.2 26.9105C94.7333 25.1772 95 23.3605 95 21.4605C95 19.7272 94.75 18.2105 94.25 16.9105C93.75 15.5772 93.0333 14.4605 92.1 13.5605C91.2 12.6605 90.1 11.9939 88.8 11.5605C87.5333 11.0939 86.1 10.8605 84.5 10.8605C83.0333 10.8605 81.6667 11.0772 80.4 11.5105C79.1667 11.9105 78.0667 12.4939 77.1 13.2605C76.1333 13.9939 75.3167 14.8605 74.65 15.8605C73.9833 16.8605 73.4833 17.9605 73.15 19.1605C72.5833 20.6939 71.85 21.7105 70.95 22.2105C70.05 22.7105 68.75 22.8272 67.05 22.5605L60.55 21.4105C61.05 17.9439 62.0167 14.9105 63.45 12.3105C64.8833 9.67721 66.6667 7.49388 68.8 5.76054C70.9667 3.99388 73.4333 2.67721 76.2 1.81054C79 0.910545 82 0.460546 85.2 0.460546C88.5333 0.460546 91.5833 0.960546 94.35 1.96054C97.1167 2.92721 99.4833 4.31054 101.45 6.11054C103.417 7.91054 104.95 10.0772 106.05 12.6105C107.15 15.1439 107.7 17.9605 107.7 21.0605C107.7 23.7272 107.3 26.1939 106.5 28.4605C105.733 30.7272 104.683 32.8939 103.35 34.9605C102.05 37.0272 100.517 39.0272 98.75 40.9605C96.9833 42.8939 95.1333 44.8605 93.2 46.8605L76.9 63.5105C78.4667 63.0439 80.0167 62.6939 81.55 62.4605C83.1167 62.1939 84.6 62.0605 86 62.0605H104.55Z" fill="#101010" fill-opacity="0.08"/>
</svg>
