<svg width="109" height="75" viewBox="0 0 109 75" fill="none" xmlns="http://www.w3.org/2000/svg">
<path d="M52.9922 37.4105C52.9922 43.7105 52.3089 49.1939 50.9422 53.8605C49.6089 58.4939 47.7422 62.3272 45.3422 65.3605C42.9755 68.3939 40.1589 70.6605 36.8922 72.1605C33.6589 73.6272 30.1589 74.3605 26.3922 74.3605C22.6255 74.3605 19.1255 73.6272 15.8922 72.1605C12.6922 70.6605 9.90885 68.3939 7.54219 65.3605C5.17552 62.3272 3.32552 58.4939 1.99219 53.8605C0.658854 49.1939 -0.00781246 43.7105 -0.00781246 37.4105C-0.00781246 31.0772 0.658854 25.5939 1.99219 20.9605C3.32552 16.3272 5.17552 12.4939 7.54219 9.46054C9.90885 6.42721 12.6922 4.17721 15.8922 2.71054C19.1255 1.21055 22.6255 0.460546 26.3922 0.460546C30.1589 0.460546 33.6589 1.21055 36.8922 2.71054C40.1589 4.17721 42.9755 6.42721 45.3422 9.46054C47.7422 12.4939 49.6089 16.3272 50.9422 20.9605C52.3089 25.5939 52.9922 31.0772 52.9922 37.4105ZM40.2422 37.4105C40.2422 32.1772 39.8589 27.8439 39.0922 24.4105C38.3255 20.9772 37.2922 18.2439 35.9922 16.2105C34.7255 14.1772 33.2589 12.7605 31.5922 11.9605C29.9255 11.1272 28.1922 10.7105 26.3922 10.7105C24.6255 10.7105 22.9089 11.1272 21.2422 11.9605C19.6089 12.7605 18.1589 14.1772 16.8922 16.2105C15.6255 18.2439 14.6089 20.9772 13.8422 24.4105C13.1089 27.8439 12.7422 32.1772 12.7422 37.4105C12.7422 42.6439 13.1089 46.9772 13.8422 50.4105C14.6089 53.8439 15.6255 56.5772 16.8922 58.6105C18.1589 60.6439 19.6089 62.0772 21.2422 62.9105C22.9089 63.7105 24.6255 64.1105 26.3922 64.1105C28.1922 64.1105 29.9255 63.7105 31.5922 62.9105C33.2589 62.0772 34.7255 60.6439 35.9922 58.6105C37.2922 56.5772 38.3255 53.8439 39.0922 50.4105C39.8589 46.9772 40.2422 42.6439 40.2422 37.4105ZM60.9 21.4105C61.4 17.9439 62.3667 14.9105 63.8 12.3105C65.2333 9.67721 67.0167 7.49388 69.15 5.76054C71.3167 3.99388 73.7833 2.67721 76.55 1.81054C79.35 0.910545 82.35 0.460546 85.55 0.460546C88.8833 0.460546 91.8833 0.943878 94.55 1.91054C97.25 2.84388 99.55 4.16054 101.45 5.86054C103.35 7.52721 104.8 9.49388 105.8 11.7605C106.833 14.0272 107.35 16.4772 107.35 19.1105C107.35 21.4105 107.083 23.4439 106.55 25.2105C106.05 26.9439 105.317 28.4605 104.35 29.7605C103.383 31.0605 102.183 32.1605 100.75 33.0605C99.3167 33.9605 97.7 34.7105 95.9 35.3105C100.233 36.6772 103.467 38.7605 105.6 41.5605C107.733 44.3605 108.8 47.8772 108.8 52.1105C108.8 55.7105 108.133 58.8939 106.8 61.6605C105.467 64.4272 103.667 66.7605 101.4 68.6605C99.1333 70.5272 96.5 71.9439 93.5 72.9105C90.5333 73.8772 87.3833 74.3605 84.05 74.3605C80.4167 74.3605 77.25 73.9439 74.55 73.1105C71.85 72.2772 69.5 71.0439 67.5 69.4105C65.5 67.7772 63.8 65.7772 62.4 63.4105C61 61.0439 59.8 58.3105 58.8 55.2105L64.25 52.9605C65.6833 52.3605 67.0167 52.2105 68.25 52.5105C69.5167 52.7772 70.4333 53.4439 71 54.5105C71.6 55.6772 72.25 56.8272 72.95 57.9605C73.6833 59.0939 74.55 60.1105 75.55 61.0105C76.55 61.8772 77.7167 62.5939 79.05 63.1605C80.4167 63.6939 82.0333 63.9605 83.9 63.9605C86 63.9605 87.8333 63.6272 89.4 62.9605C90.9667 62.2605 92.2667 61.3605 93.3 60.2605C94.3667 59.1605 95.15 57.9439 95.65 56.6105C96.1833 55.2439 96.45 53.8772 96.45 52.5105C96.45 50.7772 96.2667 49.2105 95.9 47.8105C95.5333 46.3772 94.7667 45.1605 93.6 44.1605C92.4333 43.1605 90.75 42.3772 88.55 41.8105C86.3833 41.2439 83.4667 40.9605 79.8 40.9605V32.1605C82.8333 32.1272 85.35 31.8439 87.35 31.3105C89.35 30.7772 90.9333 30.0439 92.1 29.1105C93.3 28.1439 94.1333 26.9939 94.6 25.6605C95.0667 24.3272 95.3 22.8605 95.3 21.2605C95.3 17.8605 94.35 15.2772 92.45 13.5105C90.55 11.7439 88.0167 10.8605 84.85 10.8605C83.3833 10.8605 82.0333 11.0772 80.8 11.5105C79.5667 11.9105 78.45 12.4939 77.45 13.2605C76.4833 13.9939 75.6667 14.8605 75 15.8605C74.3333 16.8605 73.8333 17.9605 73.5 19.1605C72.9333 20.6939 72.1833 21.7105 71.25 22.2105C70.35 22.7105 69.0667 22.8272 67.4 22.5605L60.9 21.4105Z" fill="#101010" fill-opacity="0.08"/>
</svg>
