<svg width="70" height="71" viewBox="0 0 70 71" fill="none" xmlns="http://www.w3.org/2000/svg">
<g id="iwwa-file-pdf">
<g id="Group">
<path id="Vector" d="M23.7229 35.9195C23.7229 34.4657 22.7128 33.5972 20.9318 33.5972C20.2049 33.5972 19.7133 33.6679 19.455 33.7368V38.4064C19.7611 38.4753 20.136 38.5002 20.6506 38.5002C22.5502 38.5002 23.7229 37.5379 23.7229 35.9195Z" fill="#ED4C5C"/>
<path id="Vector_2" d="M34.7532 33.6431C33.9555 33.6431 33.439 33.7138 33.1329 33.7846V44.1301C33.439 44.2009 33.9306 44.2009 34.3764 44.2009C37.6132 44.2238 39.7251 42.4409 39.7251 38.6647C39.75 35.3801 37.8255 33.6431 34.7532 33.6431Z" fill="#ED4C5C"/>
<path id="Vector_3" d="M55.8861 27.5655H54.5891V21.3081C54.588 21.2684 54.5842 21.2287 54.5776 21.1895C54.5797 20.9378 54.4907 20.6939 54.327 20.5027L43.9146 8.61156L43.9069 8.6039C43.7747 8.46041 43.6061 8.35532 43.4191 8.29974L43.3617 8.28061C43.2822 8.26079 43.2007 8.25052 43.1187 8.25H17.5286C16.3598 8.25 15.4109 9.20076 15.4109 10.3677V27.5655H14.1139C12.442 27.5655 11.0876 28.9199 11.0876 30.5919V46.332C11.0876 48.002 12.4439 49.3584 14.1139 49.3584H15.4109V60.1343C15.4109 61.3012 16.3598 62.252 17.5286 62.252H52.4714C53.6383 62.252 54.5891 61.3012 54.5891 60.1343V49.3584H55.8861C57.558 49.3584 58.9124 48.002 58.9124 46.332V30.5919C58.9124 28.9199 57.5561 27.5655 55.8861 27.5655ZM17.5286 10.3677H42.059V21.2029C42.059 21.7883 42.5334 22.2608 43.1187 22.2608H52.4733V27.5655H17.5286V10.3677ZM43.5262 38.5461C43.5262 41.5725 42.4243 43.6615 40.8958 44.9508C39.2315 46.3339 36.6987 46.992 33.6016 46.992C31.7479 46.992 30.4356 46.8734 29.5422 46.7586V31.227C30.8564 31.0166 32.5686 30.8999 34.3764 30.8999C37.3778 30.8999 39.3253 31.4393 40.8499 32.589C42.4932 33.8076 43.5262 35.755 43.5262 38.5461ZM15.9102 46.8294V31.227C17.0121 31.0395 18.5616 30.8999 20.7424 30.8999C22.9481 30.8999 24.5206 31.3226 25.5747 32.1663C26.5828 32.964 27.2619 34.2782 27.2619 35.8258C27.2619 37.3754 26.7473 38.6877 25.8081 39.5791C24.5876 40.7288 22.7817 41.2453 20.6697 41.2453C20.2011 41.2453 19.7783 41.2224 19.4512 41.1746V46.8294H15.9102ZM52.4714 59.5604H17.5286V49.3584H52.4714V59.5604ZM55.5398 33.9492H49.4622V37.5628H55.14V40.4725H49.4622V46.8294H45.8754V31.0166H55.5398V33.9492Z" fill="#ED4C5C"/>
</g>
</g>
</svg>
